# xmcd
#
# Track frame offsets:
#	150
#	19670
#	33223
#	50806
#	63397
#	79212
#	95664
#	112727
#	128594
#	145072
#	157351
#	170137
#	189202
#	203353
#	221547
#	238519
#	257363
#
# Disc length: 3703 seconds
#
# Revision: 1
# Processed by: cddbd v1.5.2PL0 Copyright (c) Steve Scherf et al.
# Submitted via: audiograbber 1.83.01
#
DISCID=e20e7511
DTITLE=George Strait - D2
DYEAR=1900
DGENRE=Karaoke
TTITLE0=Strait, George - You'll Be There
TTITLE1=Strait, George - Fool Hearted Memory
TTITLE2=Strait, George - I've Come To Expect It From You
TTITLE3=Strait, George - The Fireman
TTITLE4=Strait, George - Does Fort Worth Ever Cross Your Mind
TTITLE5=Strait, George - Drinkin' Champagne
TTITLE6=Strait, George - I Cross My Heart
TTITLE7=Strait, George - Check Yes Or No
TTITLE8=Strait, George - I Just Want To Dance With You
TTITLE9=Strait, George - We Really Shouldn't Be Doin' This
TTITLE10=Strait, George - Amarillo By Morning
TTITLE11=Strait, George - Run
TTITLE12=Strait, George - Blue Clear Shy
TTITLE13=Strait, George - So Much Like My Dad
TTITLE14=Strait, George - You Look So Good In Love
TTITLE15=Strait, George - I Hate Everything
TTITLE16=Strait, George - The Seashores Of Old Mexico
EXTD=
EXTT0=
EXTT1=
EXTT2=
EXTT3=
EXTT4=
EXTT5=
EXTT6=
EXTT7=
EXTT8=
EXTT9=
EXTT10=
EXTT11=
EXTT12=
EXTT13=
EXTT14=
EXTT15=
EXTT16=
PLAYORDER=
